<svg xmlns="http://www.w3.org/2000/svg" viewBox="0 0 50.27 50.56"><defs><style>.cls-1{fill:#219ebc;}.cls-2{fill:#a8e1f0;}</style></defs><g id="Layer_2" data-name="Layer 2"><g id="Layer_1-2" data-name="Layer 1"><path class="cls-1" d="M31.14,6.2c-.16-.89-.28-1.78-.4-2.67l0-.34,0-.16V2.88a1.27,1.27,0,0,0-.19-.45,1.43,1.43,0,0,0-.31-.34,1.34,1.34,0,0,0-.4-.19,1.12,1.12,0,0,0-.41,0l-.62,0L28.06,2,27.4,2l-2.67.19-1.34.07H23l-.06,0a.58.58,0,0,0-.27.19.59.59,0,0,0-.14.3.41.41,0,0,0,0,.11v.22l0,.67c0,.89.05,1.78.07,2.67,0,.22,0,.44,0,.67v.28a.68.68,0,0,1,0,.14.77.77,0,0,1,0,.15,1.4,1.4,0,0,1-.06.28.57.57,0,0,1,0,.14.78.78,0,0,1-.05.14A3.19,3.19,0,0,1,21,10a2.06,2.06,0,0,1-.26.12l-.28.11-.28.07-.29.05H17.7l-1.34,0-1.24,0a.63.63,0,0,0-.19,0l-.18.1a1.15,1.15,0,0,0-.14.17.74.74,0,0,0-.07.21h0v.25l0,.33,0,.67c0,.45,0,.89-.07,1.34s-.05.88-.08,1.33-.05.89-.08,1.34c0,.22,0,.44,0,.66l-.05.57a1,1,0,0,0,.07.38,1.17,1.17,0,0,0,.21.36,1.27,1.27,0,0,0,.34.27l.05,0,.05,0,0,0H15l0,0h.06l.06,0h.07c.44,0,.89.09,1.33.15q1.34.15,2.67.36c-.88.16-1.77.28-2.66.4l-1.34.16h-.54l-.1,0-.11,0-.11,0a2.43,2.43,0,0,1-.81-.39,2.52,2.52,0,0,1-1-1.55v-.06a.13.13,0,0,1,0-.06v-.32l0-.33-.06-.67c0-.44-.06-.89-.1-1.33l-.09-1.34c0-.44,0-.89-.07-1.33l0-.67v-.72a3.06,3.06,0,0,1,.81-2,3,3,0,0,1,.9-.68,3.17,3.17,0,0,1,1.08-.3h.77l.67,0,1.33,0,1.34,0h.59l0,0,0,0a.45.45,0,0,0,.14-.1.64.64,0,0,0,.08-.14v0s0,0,0,0v0s0,0,0,0v0h0V6.52c0-.89,0-1.78,0-2.67l0-.67V2.74a2.55,2.55,0,0,1,.11-.55,2.94,2.94,0,0,1,.5-1,3.22,3.22,0,0,1,.82-.74,2.9,2.9,0,0,1,1-.4l.27,0h.64l1.34.07c.89,0,1.78.1,2.67.16l.66,0,.67.05.34,0h.38a2.47,2.47,0,0,1,.87.28,2.25,2.25,0,0,1,.7.56,2.28,2.28,0,0,1,.44.75,2.21,2.21,0,0,1,.13.84V3l0,.17,0,.34C31.4,4.41,31.29,5.31,31.14,6.2Z"/><path class="cls-1" d="M27,12.55l-.36.2-.36.19-.7.43c-.22.14-.44.3-.65.46l-.32.24-.3.26c-.19.17-.38.35-.56.54a6.86,6.86,0,0,0-.48.59l-.05.07a.35.35,0,0,0-.05.08l-.11.15-.09.16-.05.08,0,.08,0,.08a.36.36,0,0,0,0,.09,1.19,1.19,0,0,0-.08.16l-.07.17a1.22,1.22,0,0,0-.07.17c-.08.23-.15.46-.21.7s-.1.48-.14.73v.18l0,.19,0,.39,0,.39v.38c0,.52,0,1,0,1.56,0,.26,0,.53,0,.79l.06.81.06.82.05.8,0,.19v.17a2.38,2.38,0,0,0,.05.26.35.35,0,0,0,.06.14l0,0a0,0,0,0,1,0,0h0l0,0a.73.73,0,0,0,.23.16.75.75,0,0,0,.26,0l.79,0,.82,0,3.27-.07H29.3a.37.37,0,0,0,.19-.09.48.48,0,0,0,.18-.35V20.9c0-.07,0-.11,0-.25s0-.12,0-.18,0-.11,0-.17l0-.17c0-.06,0-.12,0-.17a1.93,1.93,0,0,1,.11-.34l0-.08,0-.08.08-.16a.25.25,0,0,1,0-.07l0-.08.1-.15.1-.13a1.71,1.71,0,0,1,.11-.14,3,3,0,0,1,.25-.25,3,3,0,0,1,1.2-.68l.34-.08.17,0h.67l1.64,0,1.63.05h.78a.86.86,0,0,0,.32-.05h0l0,0,0,0,0,0,.07-.06,0,0,0,0a1,1,0,0,0,.18-.31s0,0,0,0v-.05s0,0,0,0v0h0V17l0-.41,0-.82q.09-1.63.21-3.27c0-.54.09-1.09.13-1.63V10.4s0-.05,0-.07l0-.08v-.07l0-.08,0-.07,0-.07,0-.07a.25.25,0,0,0,0-.07l0-.06,0,0,0,0a1.41,1.41,0,0,0-.53-.4l-.08,0-.08,0-.08,0-.09,0H37l-.21,0c-.54-.06-1.09-.12-1.63-.2.54-.08,1.09-.15,1.63-.21l.21,0h.45l.12,0,.12,0a2.12,2.12,0,0,1,.87.41l.05,0,0,0,.09.09.08.09.09.09.07.1.07.11.07.11,0,0,0,.06,0,.12a.56.56,0,0,1,0,.12l.05.12,0,.13v.13l0,.13v.22c.05.55.1,1.09.14,1.63q.14,1.63.24,3.27l.06.82,0,.41v.43c0,.06,0,.11,0,.16a2.84,2.84,0,0,1-.48,1.18,2.81,2.81,0,0,1-.93.85,2.89,2.89,0,0,1-1.24.38h-.45l-.41,0-1.63.06-1.63.06h-.44a1,1,0,0,0-.2.15l0,.05,0,0s0,0,0,0,0,0,0,0v0h0v0h0s0,0,0,.06v.08a0,0,0,0,1,0,0v.16l0,1.63,0,1.63V25A3.39,3.39,0,0,1,32,26.38a3.16,3.16,0,0,1-2.2,1.67l-.18,0-.17,0H27.94l-3.26,0h-.82L23,28a3.28,3.28,0,0,1-.69-.1,3.11,3.11,0,0,1-1.66-1.12l-.09-.14-.1-.15c0-.05-.05-.11-.08-.16a1.11,1.11,0,0,1-.07-.16,2.85,2.85,0,0,1-.19-.63,5.32,5.32,0,0,1-.06-.56v-.45l0-.83v-.82c0-.54,0-1.1.06-1.67,0-.28,0-.56.07-.85,0-.14,0-.28.05-.43l0-.21,0-.22c0-.28.1-.56.15-.84s.07-.28.1-.42a1.74,1.74,0,0,1,0-.22l0-.1,0-.11A6.55,6.55,0,0,1,21,17a6.16,6.16,0,0,1,.39-.82,5.24,5.24,0,0,1,.5-.76l.07-.09.07-.08.14-.17.16-.17.07-.08.08-.08.17-.15.16-.14.18-.14.17-.14c.23-.17.47-.32.72-.47s.5-.27.75-.39.52-.23.78-.32A11.19,11.19,0,0,1,27,12.55Z"/><path class="cls-2" d="M20,16l-.09-.27c0-.09-.05-.18-.07-.27a1,1,0,0,1,0-.14l0-.14,0-.14,0-.15a5.71,5.71,0,0,1-.09-1.17c0-.2,0-.4.05-.6l.06-.3,0-.16a.83.83,0,0,0,0-.15,4.23,4.23,0,0,1,.54-1.16l.09-.14a1.13,1.13,0,0,1,.1-.13l.21-.25.11-.13.12-.11.12-.12.13-.1a5.58,5.58,0,0,1,1.1-.71l.15-.07.15-.07.15-.06.14,0,.3-.11.15,0,.15,0,.15,0,.15,0,.31-.07c.2-.05.4-.08.59-.11.79-.13,1.53-.19,2.21-.29l.24,0,.24,0,.11,0,.12,0,.23-.06a4.75,4.75,0,0,0,.46-.14l.11,0,.06,0,.05,0,.23-.09a12.74,12.74,0,0,0,3.37-2l0,0a1.32,1.32,0,0,1,1.36-.2,1.35,1.35,0,0,1,.57.43,1.33,1.33,0,0,1,.27.66v.17l0,.14c0,.1,0,.2,0,.29s0,.39,0,.58c0,.38,0,.76,0,1.14s0,.76-.07,1.14a5.51,5.51,0,0,1-.06.57c0,.19,0,.39-.08.58a12,12,0,0,1-.61,2.28A7.64,7.64,0,0,1,33.07,15a6.87,6.87,0,0,1-.72,1c-.15.16-.3.32-.46.47l-.25.21-.13.11-.13.09,0,0,0,0-.07.05-.14.09-.27.15-.27.13-.26.13a10.18,10.18,0,0,1-2.2.68,9.44,9.44,0,0,1-2.25.15,7.87,7.87,0,0,1-2.17-.41,12.41,12.41,0,0,0,2.1-.33,11.91,11.91,0,0,0,1.93-.67,11.27,11.27,0,0,0,1.73-1l.2-.15.19-.14.18-.14.07-.07,0,0,0,0h0l.27-.31.24-.35a5.89,5.89,0,0,0,.68-1.62,10.86,10.86,0,0,0,.32-1.88c0-.16,0-.32,0-.48l0-.49c0-.17,0-.33,0-.5V9.28c0-.33,0-.66,0-1l0-.5,0-.24V7.33l2.21.88a15.29,15.29,0,0,1-2,1.39l-.54.29L31,10l-.14.07-.14.06-.28.13-.29.11-.15.06-.15,0-.3.1-.3.09-.08,0-.07,0-.16,0-.3.08-.31.06L28,11l-.16,0-.15,0-.32,0-.3,0c-.8,0-1.54,0-2.23,0h-.26l-.25,0H24l-.12,0-.24,0-.24,0-.12,0-.12,0-.11,0-.11,0a3.7,3.7,0,0,0-1.6.85l-.08.08-.08.09a1.3,1.3,0,0,0-.15.18l-.08.09-.07.1,0,0,0,.05-.06.1a4,4,0,0,0-.42.92A9.2,9.2,0,0,0,20,16Z"/><path class="cls-1" d="M49.8,48a4.42,4.42,0,0,1-4.08,2.51c-1.35,0-2.71,0-4.07,0a.9.9,0,0,1-.23,0,.82.82,0,0,1-.45-.28.79.79,0,0,1-.17-.49V45.27h1.6V49h3.35a3,3,0,0,0,.67-.08,2.89,2.89,0,0,0,1.86-4.25,2.79,2.79,0,0,0-2.53-1.47h-5v-1.6h5c.19,0,.38,0,.58,0a4.15,4.15,0,0,1,1.8.64,4.38,4.38,0,0,1,2.08,3.24A4.14,4.14,0,0,1,49.8,48Z"/><path class="cls-1" d="M9.91,50.54H7.71L5.05,47.65H1.6v2.88H1a.62.62,0,0,1-.33,0H0V45.26H1.67V46H6.38a1.4,1.4,0,0,0,.84-.24,1.34,1.34,0,0,0,.54-.68,1.37,1.37,0,0,0,0-.87,1.41,1.41,0,0,0-.46-.74,1.46,1.46,0,0,0-1-.35H0v-1.6H6.37a3,3,0,0,1,2.08.79,2.88,2.88,0,0,1,1,2.13A3,3,0,0,1,8,47.2a2.61,2.61,0,0,1-.84.36h0c.1.12.2.23.31.34Z"/><path class="cls-1" d="M24.22,50.55H22.44c-.78-1.66-1.75-3.68-2.16-4.57-.3-.68-.61-1.35-.92-2A1.33,1.33,0,0,0,17,44c-.15.31-.28.62-.42.92-.61,1.34-1.76,3.83-2.61,5.68H12.16c.12-.28.25-.56.38-.84l2.92-6.36a2.91,2.91,0,0,1,5.35-.05C21.57,44.94,23.15,48.27,24.22,50.55Zm-6-2.52,1.17,2.52H17Z"/><path class="cls-1" d="M38.18,50H36.5c-.74-1.55-1.64-3.45-2-4.29l-.87-1.9a1.25,1.25,0,0,0-2.27,0l-.39.86L28.49,50H26.84l.36-.78c.64-1.4,2.11-4.58,2.74-6a2.77,2.77,0,0,1,1.77-1.57A2.72,2.72,0,0,1,35,43.19C35.68,44.73,37.17,47.86,38.18,50Zm-5.69-2.36L33.6,50H31.42Z"/></g></g></svg>