<svg xmlns="http://www.w3.org/2000/svg" viewBox="0 0 27.78 28.11"><defs><style>.cls-1{fill:#219ebc;}.cls-2{fill:#a8e1f0;}</style></defs><g id="Layer_2" data-name="Layer 2"><g id="Layer_1-2" data-name="Layer 1"><path class="cls-1" d="M19,6.2q-.23-1.34-.39-2.67l0-.34,0-.16V3l0-.07a1.25,1.25,0,0,0-.18-.45A1.29,1.29,0,0,0,18,2.09a1.41,1.41,0,0,0-.39-.19,1.15,1.15,0,0,0-.41,0l-.63,0L15.94,2,15.27,2l-2.67.19-1.34.07H10.9l-.06,0a.64.64,0,0,0-.27.19.69.69,0,0,0-.14.3s0,.07,0,.11v.22l0,.67c0,.89.05,1.78.07,2.67,0,.22,0,.44,0,.67v.28a.66.66,0,0,1,0,.14c0,.05,0,.1,0,.15L10.43,8a1,1,0,0,0,0,.14l-.05.14A3.19,3.19,0,0,1,8.85,10l-.27.12-.27.11L8,10.33l-.29.05H5.57l-1.33,0L3,10.36a.58.58,0,0,0-.19,0,.77.77,0,0,0-.18.1.55.55,0,0,0-.14.17.52.52,0,0,0-.07.21h0v.58l0,.67L2.3,13.5c0,.44,0,.88-.08,1.33l-.09,1.34c0,.22,0,.44,0,.66l0,.57a1.21,1.21,0,0,0,.06.38,1.17,1.17,0,0,0,.21.36,1.31,1.31,0,0,0,.35.27l0,0,.06,0,.05,0h0l.06,0H3l.06,0H3.1c.45,0,.89.09,1.34.15q1.34.15,2.67.36c-.89.16-1.78.28-2.67.4l-1.33.16H2.57l-.11,0-.11,0-.11,0a2.38,2.38,0,0,1-.8-.39,2.48,2.48,0,0,1-1-1.55l0-.06a.13.13,0,0,0,0-.06v-.32l0-.33c0-.23,0-.45,0-.67,0-.44-.07-.89-.1-1.33S.17,14,.14,13.5s-.05-.89-.08-1.33l0-.67,0-.34v-.38a3,3,0,0,1,.8-2,3.14,3.14,0,0,1,.9-.68,3.16,3.16,0,0,1,1.09-.3h.77l.66,0,1.34,0,1.33,0h.59l0,0,0,0a.41.41,0,0,0,.13-.1.42.42,0,0,0,.09-.14v0s0,0,0,0V7.22h0c0-.22,0-.44,0-.67,0-.89,0-1.78,0-2.67V2.74A3.35,3.35,0,0,1,8,2.19,3.11,3.11,0,0,1,9.32.45a3,3,0,0,1,1-.4l.27,0h.63l1.34.07c.89,0,1.78.1,2.67.16l.67,0,.67.05.33,0h.38a2.45,2.45,0,0,1,.88.28,2.51,2.51,0,0,1,.7.56,2.25,2.25,0,0,1,.43.75,2.21,2.21,0,0,1,.13.84V3l0,.17,0,.34C19.28,4.41,19.16,5.31,19,6.2Z"/><path class="cls-1" d="M14.89,12.55l-.37.2-.36.19-.69.43a7.75,7.75,0,0,0-.66.46l-.31.24a2.55,2.55,0,0,0-.3.26,5.73,5.73,0,0,0-.56.54,6.86,6.86,0,0,0-.48.59l-.06.07,0,.08-.1.15-.09.16a.35.35,0,0,0,0,.08l0,.08,0,.08a.36.36,0,0,1,0,.09,1.19,1.19,0,0,1-.08.16l-.07.17-.06.17a5.68,5.68,0,0,0-.22.7c-.05.24-.1.48-.13.73v.18l0,.19c0,.13,0,.26,0,.39s0,.26,0,.39v.19a1.21,1.21,0,0,0,0,.19c0,.52,0,1,0,1.56,0,.26,0,.53.05.79l0,.81.06.82.05.8,0,.19v.17a1.19,1.19,0,0,0,.05.26.35.35,0,0,0,.06.14,0,0,0,0,0,0,0l0,0h0l0,0a.63.63,0,0,0,.23.16.73.73,0,0,0,.25,0l.8,0,.81,0,3.27-.07h1.37a.31.31,0,0,0,.18-.09.44.44,0,0,0,.14-.16.59.59,0,0,0,.05-.19V22.54l0-1.64v-.25a1.09,1.09,0,0,0,0-.18l0-.17,0-.17c0-.06,0-.12,0-.17a3.38,3.38,0,0,1,.11-.34l0-.08,0-.08a.8.8,0,0,0,.08-.16l0-.07.05-.08.09-.15.11-.13a.76.76,0,0,1,.11-.14l.24-.25a3.19,3.19,0,0,1,1.2-.68l.34-.08.17,0H21l1.63,0,1.64.05H25a.91.91,0,0,0,.33-.05h0l0,0,0,0,0,0,.07-.06,0,0,0,0a.7.7,0,0,0,.18-.31l0,0v-.11h0V17l0-.41.05-.82q.09-1.63.21-3.27c0-.54.08-1.09.13-1.63v-.34a.17.17,0,0,0,0-.07V10.4a.17.17,0,0,0,0-.07v-.15l0-.08,0-.07,0-.07,0-.07a.25.25,0,0,1,0-.07L26,9.76l0,0,0,0a1.58,1.58,0,0,0-.53-.4l-.08,0-.08,0-.09,0-.08,0h-.19l-.2,0c-.55-.06-1.09-.12-1.64-.2.55-.08,1.09-.15,1.64-.21l.2,0h.46l.12,0,.11,0a2.22,2.22,0,0,1,.88.41l.05,0,0,0,.09.09.09.09.08.09.08.1.07.11L27,9.8l0,0,0,.06.05.12.05.12s0,.08,0,.12l0,.13v.48l.15,1.63q.13,1.63.24,3.27l.05.82,0,.41v.43c0,.06,0,.11,0,.16a3,3,0,0,1-.47,1.18,2.74,2.74,0,0,1-.94.85A2.85,2.85,0,0,1,25.1,20h-.45l-.4,0-1.64.06L21,20.17h-.43a.62.62,0,0,0-.2.15l0,.05s0,0,0,0a0,0,0,0,1,0,0,0,0,0,0,0,0,0v0h0a0,0,0,0,1,0,0h0s0,0,0,.06a0,0,0,0,1,0,0v.24l0,1.63,0,1.63V25a3.09,3.09,0,0,1-.35,1.37,3.16,3.16,0,0,1-2.2,1.67l-.17,0-.18,0H15.82l-3.27,0h-.82l-.84,0a3,3,0,0,1-2.34-1.22l-.1-.14-.09-.15-.09-.16-.07-.16A3.48,3.48,0,0,1,8,25.58,5.32,5.32,0,0,1,8,25V24.9s0-.07,0-.11v-.22l0-.83,0-.82c0-.54,0-1.1.06-1.67,0-.28,0-.56.06-.85,0-.14,0-.28.05-.43l0-.21,0-.22c0-.28.1-.56.16-.84l.09-.42.06-.22,0-.1,0-.11A8.51,8.51,0,0,1,8.87,17a6.16,6.16,0,0,1,.39-.82,7.66,7.66,0,0,1,.5-.76l.07-.09.07-.08.15-.17.15-.17a.6.6,0,0,0,.08-.08l.08-.08.16-.15.17-.14.17-.14.17-.14c.24-.17.48-.32.72-.47s.5-.27.76-.39a6.71,6.71,0,0,1,.78-.32A10.83,10.83,0,0,1,14.89,12.55Z"/><path class="cls-2" d="M7.83,16l-.09-.27c0-.09,0-.18-.08-.27l0-.14,0-.14,0-.14,0-.15a5.08,5.08,0,0,1-.08-1.17,4,4,0,0,1,0-.6c0-.1,0-.2,0-.3s0-.1,0-.16a.83.83,0,0,1,0-.15,4.51,4.51,0,0,1,.53-1.16l.1-.14.09-.13a2.62,2.62,0,0,1,.22-.25l.11-.13.12-.11.12-.12.12-.1a5.37,5.37,0,0,1,1.11-.71l.14-.07.15-.07.15-.06.15,0L11,9.29l.15,0,.15,0,.16,0,.15,0,.3-.07c.2-.05.4-.08.6-.11.78-.13,1.53-.19,2.2-.29l.25,0,.23,0,.12,0,.11,0,.23-.06a3.5,3.5,0,0,0,.46-.14l.11,0,.06,0,.06,0,.22-.09a12.64,12.64,0,0,0,3.38-2l0,0a1.38,1.38,0,0,1,.65-.29,1.44,1.44,0,0,1,.71.09A1.36,1.36,0,0,1,22.19,7v.31l0,.29,0,.58c0,.38,0,.76,0,1.14s0,.76-.06,1.14l-.06.57-.09.58a11.29,11.29,0,0,1-.61,2.28A7.59,7.59,0,0,1,21,15a6.27,6.27,0,0,1-.73,1c-.14.16-.29.32-.45.47l-.25.21-.13.11-.13.09,0,0,0,0-.08.05L19,17.1l-.27.15-.26.13-.27.13a9.85,9.85,0,0,1-2.2.68,9.44,9.44,0,0,1-2.25.15,7.87,7.87,0,0,1-2.16-.41,12.29,12.29,0,0,0,2.09-.33,12,12,0,0,0,1.94-.67,11.76,11.76,0,0,0,1.73-1l.19-.15a1.33,1.33,0,0,0,.19-.14l.18-.14.08-.07,0,0v0h0a3.74,3.74,0,0,0,.27-.31,2.71,2.71,0,0,0,.24-.35,5.89,5.89,0,0,0,.68-1.62,11.93,11.93,0,0,0,.33-1.88c0-.16,0-.32,0-.48s0-.33,0-.49,0-.33,0-.5V9.28q0-.49,0-1c0-.17,0-.33,0-.5s0-.16,0-.24V7.43l0-.1,2.22.88a16,16,0,0,1-2,1.39l-.54.29-.28.14-.14.07-.14.06-.29.13-.29.11-.15.06-.15,0-.29.1-.31.09-.07,0-.08,0-.15,0-.31.08-.31.06-.31.05-.16,0-.16,0-.31,0-.31,0c-.8,0-1.54,0-2.23,0H12.5l-.25,0h-.37l-.12,0-.24,0-.24,0-.12,0-.11,0-.12,0-.11,0a3.67,3.67,0,0,0-1.59.85l-.08.08-.09.09-.15.18-.07.09-.07.1,0,0,0,.05-.07.1a5.1,5.1,0,0,0-.42.92A8.71,8.71,0,0,0,7.83,16Z"/></g></g></svg>